# ProBuilder 5.1.1
# https://unity3d.com/unity/features/worldbuilding/probuilder
# 07/01/2024 02:07:05

mtllib ./Black.mtl
o Black

g Torus (1)
v -0.5085931 0.04905837 -0.2481805
v -0.4851975 0.08169355 -0.2481805
v -0.4259579 0.09905837 -0.2481805
v -0.3585931 0.09302764 -0.2481805
v -0.3146238 0.06642319 -0.2481805
v -0.3146238 0.03169355 -0.2481805
v -0.3585931 0.005089104 -0.2481805
v -0.4259579 -0.0009416305 -0.2481805
v -0.4851975 0.01642318 -0.2481805
v -0.4963572 0.04905837 -0.3254347
v -0.4741067 0.08169355 -0.3182051
v -0.4177665 0.09905837 -0.2998991
v -0.3536987 0.09302764 -0.2790822
v -0.3118815 0.06642319 -0.265495
v -0.3118815 0.03169355 -0.265495
v -0.3536987 0.005089104 -0.2790822
v -0.4177665 -0.0009416305 -0.2998991
v -0.4741067 0.01642318 -0.3182051
v -0.4608473 0.04905837 -0.3951268
v -0.4419199 0.08169355 -0.3813753
v -0.3939941 0.09905837 -0.3465551
v -0.3394948 0.09302764 -0.306959
v -0.3039229 0.06642319 -0.2811145
v -0.3039229 0.03169355 -0.2811145
v -0.3394948 0.005089104 -0.306959
v -0.3939941 -0.0009416305 -0.3465551
v -0.4419199 0.01642318 -0.3813753
v -0.4055394 0.04905837 -0.4504347
v -0.3917879 0.08169355 -0.4315073
v -0.3569677 0.09905837 -0.3835815
v -0.3173716 0.09302764 -0.3290822
v -0.2915271 0.06642319 -0.2935103
v -0.2915271 0.03169355 -0.2935103
v -0.3173716 0.005089104 -0.3290822
v -0.3569677 -0.0009416305 -0.3835815
v -0.3917878 0.01642318 -0.4315073
v -0.3358473 0.04905837 -0.4859447
v -0.3286177 0.08169355 -0.4636942
v -0.3103116 0.09905837 -0.4073539
v -0.2894948 0.09302764 -0.3432862
v -0.2759075 0.06642319 -0.3014689
v -0.2759075 0.03169355 -0.3014689
v -0.2894948 0.005089104 -0.3432862
v -0.3103116 -0.0009416305 -0.4073539
v -0.3286177 0.01642318 -0.4636942
v -0.2585931 0.04905837 -0.4981805
v -0.2585931 0.08169355 -0.474785
v -0.2585931 0.09905837 -0.4155453
v -0.2585931 0.09302764 -0.3481805
v -0.2585931 0.06642319 -0.3042113
v -0.2585931 0.03169355 -0.3042113
v -0.2585931 0.005089104 -0.3481805
v -0.2585931 -0.0009416305 -0.4155453
v -0.2585931 0.01642318 -0.4747849
v -0.1813388 0.04905837 -0.4859447
v -0.1885685 0.08169355 -0.4636942
v -0.2068745 0.09905837 -0.4073539
v -0.2276914 0.09302764 -0.3432862
v -0.2412786 0.06642319 -0.3014689
v -0.2412786 0.03169355 -0.3014689
v -0.2276914 0.005089104 -0.3432862
v -0.2068745 -0.0009416305 -0.4073539
v -0.1885685 0.01642318 -0.4636942
v -0.1116468 0.04905837 -0.4504348
v -0.1253983 0.08169355 -0.4315073
v -0.1602185 0.09905837 -0.3835815
v -0.1998146 0.09302764 -0.3290822
v -0.225659 0.06642319 -0.2935103
v -0.225659 0.03169355 -0.2935103
v -0.1998146 0.005089104 -0.3290822
v -0.1602185 -0.0009416305 -0.3835815
v -0.1253984 0.01642318 -0.4315073
v -0.05633882 0.04905837 -0.3951268
v -0.07526621 0.08169355 -0.3813753
v -0.1231921 0.09905837 -0.3465551
v -0.1776914 0.09302764 -0.306959
v -0.2132633 0.06642319 -0.2811145
v -0.2132633 0.03169355 -0.2811145
v -0.1776914 0.005089104 -0.306959
v -0.1231921 -0.0009416305 -0.3465551
v -0.07526623 0.01642318 -0.3813753
v -0.02082895 0.04905837 -0.3254348
v -0.04307944 0.08169355 -0.3182051
v -0.09941968 0.09905837 -0.2998991
v -0.1634874 0.09302764 -0.2790822
v -0.2053047 0.06642319 -0.265495
v -0.2053047 0.03169355 -0.265495
v -0.1634874 0.005089104 -0.2790822
v -0.09941968 -0.0009416305 -0.2998991
v -0.04307947 0.01642318 -0.3182051
v -0.008593082 0.04905837 -0.2481805
v -0.03198862 0.08169355 -0.2481805
v -0.09122825 0.09905837 -0.2481805
v -0.1585931 0.09302764 -0.2481805
v -0.2025623 0.06642319 -0.2481805
v -0.2025623 0.03169355 -0.2481805
v -0.1585931 0.005089104 -0.2481805
v -0.09122826 -0.0009416305 -0.2481805
v -0.03198865 0.01642318 -0.2481805
v -0.02082893 0.04905837 -0.1709263
v -0.04307944 0.08169355 -0.1781559
v -0.09941967 0.09905837 -0.1964619
v -0.1634874 0.09302764 -0.2172788
v -0.2053047 0.06642319 -0.2308661
v -0.2053047 0.03169355 -0.2308661
v -0.1634874 0.005089104 -0.2172788
v -0.09941967 -0.0009416305 -0.1964619
v -0.04307944 0.01642318 -0.1781559
v -0.05633882 0.04905837 -0.1012342
v -0.07526621 0.08169355 -0.1149858
v -0.1231921 0.09905837 -0.149806
v -0.1776914 0.09302764 -0.189402
v -0.2132633 0.06642319 -0.2152465
v -0.2132633 0.03169355 -0.2152465
v -0.1776914 0.005089104 -0.189402
v -0.1231921 -0.0009416305 -0.149806
v -0.07526623 0.01642318 -0.1149858
v -0.1116467 0.04905837 -0.04592627
v -0.1253983 0.08169355 -0.06485368
v -0.1602185 0.09905837 -0.1127795
v -0.1998145 0.09302764 -0.1672788
v -0.225659 0.06642319 -0.2028507
v -0.225659 0.03169355 -0.2028507
v -0.1998145 0.005089104 -0.1672788
v -0.1602185 -0.0009416305 -0.1127795
v -0.1253983 0.01642318 -0.0648537
v -0.1813388 0.04905837 -0.01041639
v -0.1885684 0.08169355 -0.03266688
v -0.2068745 0.09905837 -0.08900711
v -0.2276914 0.09302764 -0.1530749
v -0.2412786 0.06642319 -0.1948921
v -0.2412786 0.03169355 -0.1948921
v -0.2276914 0.005089104 -0.1530749
v -0.2068745 -0.0009416305 -0.08900711
v -0.1885684 0.01642318 -0.03266689
v -0.2585931 0.04905837 0.001819491
v -0.2585931 0.08169355 -0.02157606
v -0.2585931 0.09905837 -0.08081569
v -0.2585931 0.09302764 -0.1481805
v -0.2585931 0.06642319 -0.1921498
v -0.2585931 0.03169355 -0.1921498
v -0.2585931 0.005089104 -0.1481805
v -0.2585931 -0.0009416305 -0.08081569
v -0.2585931 0.01642318 -0.02157608
v -0.3358473 0.04905837 -0.01041639
v -0.3286177 0.08169355 -0.03266688
v -0.3103117 0.09905837 -0.08900711
v -0.2894948 0.09302764 -0.1530749
v -0.2759075 0.06642319 -0.1948921
v -0.2759075 0.03169355 -0.1948921
v -0.2894948 0.005089104 -0.1530749
v -0.3103117 -0.0009416305 -0.08900711
v -0.3286177 0.01642318 -0.03266689
v -0.4055394 0.04905837 -0.04592623
v -0.3917878 0.08169355 -0.06485362
v -0.3569676 0.09905837 -0.1127795
v -0.3173716 0.09302764 -0.1672788
v -0.2915271 0.06642319 -0.2028507
v -0.2915271 0.03169355 -0.2028507
v -0.3173716 0.005089104 -0.1672788
v -0.3569676 -0.0009416305 -0.1127795
v -0.3917878 0.01642318 -0.06485364
v -0.4608473 0.04905837 -0.1012342
v -0.4419199 0.08169355 -0.1149857
v -0.3939941 0.09905837 -0.1498059
v -0.3394948 0.09302764 -0.189402
v -0.3039229 0.06642319 -0.2152465
v -0.3039229 0.03169355 -0.2152465
v -0.3394948 0.005089104 -0.189402
v -0.3939941 -0.0009416305 -0.1498059
v -0.4419199 0.01642318 -0.1149857
v -0.4963572 0.04905837 -0.1709263
v -0.4741067 0.08169355 -0.1781559
v -0.4177665 0.09905837 -0.1964619
v -0.3536987 0.09302764 -0.2172788
v -0.3118815 0.06642319 -0.2308661
v -0.3118815 0.03169355 -0.2308661
v -0.3536987 0.005089104 -0.2172788
v -0.4177665 -0.0009416305 -0.1964619
v -0.4741067 0.01642318 -0.1781559

vt 0 0
vt 0 0.06427876
vt 0.2266045 0
vt 0.1673648 0
vt 0.09999999 0
vt 0 0.08660254
vt 0 0.03420202
vt 0 -0.03420202
vt 0 -0.08660255
vt -0.1 0
vt -0.1673648 0
vt -0.2266044 0
vt 0 -0.06427877
vt -0.07725424 0
vt -0.07002462 0.06427876
vt 0.2155136 -0.07002462
vt 0.1591734 -0.05171857
vt 0.09510565 -0.0309017
vt 0.0309017 0.08660254
vt 0.01731446 0.03420202
vt 0.01731446 -0.03420202
vt 0.0309017 -0.08660255
vt -0.09510566 -0.0309017
vt -0.1591734 -0.05171857
vt -0.2155136 -0.07002462
vt -0.07002462 -0.06427877
vt -0.1469463 0
vt -0.1331947 0.06427876
vt 0.1833269 -0.1331947
vt 0.135401 -0.09837458
vt 0.0809017 -0.05877852
vt 0.05877852 0.08660254
vt 0.03293404 0.03420202
vt 0.03293404 -0.03420202
vt 0.05877853 -0.08660255
vt -0.08090171 -0.05877853
vt -0.135401 -0.09837457
vt -0.1833268 -0.1331947
vt -0.1331947 -0.06427877
vt 0.2022543 0
vt 0.1833269 0.06427876
vt 0.04532982 -0.03293404
vt -0.04532982 0.03420202
vt -0.04532982 -0.03420202
vt -0.04532982 -0.03293404
vt 0.1833268 -0.06427877
vt 0.1469463 0
vt 0.1331948 0.06427876
vt 0.1331948 -0.1833269
vt 0.09837459 -0.135401
vt 0.05877853 -0.0809017
vt 0.03293405 -0.04532982
vt -0.03293405 0.03420202
vt -0.03293405 -0.03420202
vt -0.03293405 -0.04532982
vt -0.05877854 -0.08090171
vt -0.09837458 -0.135401
vt -0.1331948 -0.1833268
vt 0.1331948 -0.06427877
vt -0.05877853 0.08660254
vt -0.05877854 -0.08660255
vt 0.07725425 0
vt 0.07002462 0.06427876
vt 0.07002462 -0.2155136
vt 0.05171857 -0.1591734
vt 0.03090169 -0.09510565
vt -0.03090169 0.08660254
vt -0.01731445 0.03420202
vt -0.01731445 -0.03420202
vt -0.0309017 -0.08660255
vt -0.0309017 -0.09510566
vt -0.05171857 -0.1591734
vt -0.07002462 -0.2155136
vt 0.07002462 -0.06427877
vt -1.990728E-09 -0.2266044
vt -5.521684E-09 -0.1673648
vt -9.536941E-09 -0.1
vt -0.2022543 0
vt -0.1833269 0.06427876
vt 0.04532982 0.03420202
vt 0.04532982 -0.03420202
vt -0.1833269 -0.06427877
vt -0.09999999 1.748456E-08
vt 0.1 1.748456E-08
vt -0.2155136 0.07002462
vt -0.1591734 0.05171857
vt -0.09510565 0.03090169
vt 0.09510566 0.0309017
vt 0.1591734 0.05171857
vt 0.2155136 0.07002462
vt -0.1833269 0.1331947
vt -0.135401 0.09837455
vt -0.0809017 0.05877852
vt 0.08090171 0.05877852
vt 0.135401 0.09837455
vt 0.1833269 0.1331947
vt -0.04532982 0.03293405
vt 0.04532982 0.03293405
vt -0.1331948 0.1833268
vt -0.09837461 0.135401
vt -0.05877854 0.08090168
vt -0.03293405 0.0453298
vt 0.03293405 0.0453298
vt 0.05877855 0.08090169
vt 0.09837461 0.135401
vt 0.1331948 0.1833268
vt -0.07002465 0.2155136
vt -0.05171859 0.1591734
vt -0.0309017 0.09510564
vt 0.03090171 0.09510566
vt 0.05171859 0.1591734
vt 0.07002465 0.2155136
vt 6.354713E-09 0.2266044
vt 2.823756E-09 0.1673648
vt -1.191501E-09 0.1

vn -0.8060837 0.577866 -0.1276709
vn -0.2810137 0.9586712 -0.04450823
vn 0.08915793 0.9959174 0.01412121
vn 0.51595 0.852712 0.08171841
vn 0.9876883 0 0.1564349
vn 0.5159497 -0.8527121 0.08171866
vn 0.08915803 -0.9959174 0.01412132
vn -0.2810138 -0.9586711 -0.04450816
vn -0.8060836 -0.5778663 -0.1276708
vn -0.7271784 0.5778664 -0.3705159
vn -0.2535062 0.9586711 -0.1291679
vn 0.08043054 0.9959174 0.04098139
vn 0.465445 0.852712 0.2371563
vn 0.8910061 0 0.4539914
vn 0.465445 -0.852712 0.2371566
vn 0.0804306 -0.9959174 0.04098139
vn -0.2535061 -0.9586711 -0.1291679
vn -0.7271785 -0.5778663 -0.3705161
vn -0.5770919 0.5778666 -0.5770919
vn -0.2011837 0.958671 -0.2011836
vn 0.06383004 0.9959174 0.06382999
vn 0.3693793 0.852712 0.3693793
vn 0.7071068 0 0.7071068
vn 0.3693792 -0.8527122 0.3693792
vn 0.0638301 -0.9959174 0.0638301
vn -0.2011836 -0.9586712 -0.2011836
vn -0.5770921 -0.5778664 -0.5770921
vn -0.370516 0.5778663 -0.7271784
vn -0.1291679 0.9586711 -0.2535063
vn 0.04098136 0.9959174 0.08043052
vn 0.2371563 0.8527121 0.465445
vn 0.4539907 0 0.8910065
vn 0.2371561 -0.8527122 0.4654448
vn 0.04098142 -0.9959174 0.08043064
vn -0.1291679 -0.9586712 -0.253506
vn -0.3705161 -0.5778663 -0.7271785
vn -0.1276709 0.5778664 -0.8060835
vn -0.04450823 0.9586712 -0.2810138
vn 0.01412121 0.9959174 0.08915793
vn 0.08171838 0.8527121 0.5159498
vn 0.1564352 0 0.9876882
vn 0.08171881 -0.852712 0.5159498
vn 0.01412131 -0.9959174 0.08915795
vn -0.04450815 -0.9586711 -0.2810137
vn -0.1276708 -0.5778662 -0.8060836
vn 0.1276709 0.577866 -0.8060837
vn 0.04450822 0.9586712 -0.2810137
vn -0.01412121 0.9959174 0.08915793
vn -0.08171844 0.852712 0.51595
vn -0.1564352 0 0.9876882
vn -0.0817188 -0.8527121 0.5159497
vn -0.01412132 -0.9959174 0.08915803
vn 0.04450816 -0.9586711 -0.2810138
vn 0.1276708 -0.5778663 -0.8060836
vn 0.3705159 0.5778664 -0.7271783
vn 0.1291679 0.9586711 -0.2535062
vn -0.04098139 0.9959174 0.08043053
vn -0.2371563 0.8527121 0.465445
vn -0.4539907 0 0.8910065
vn -0.2371562 -0.8527121 0.465445
vn -0.04098139 -0.9959174 0.0804306
vn 0.129168 -0.9586711 -0.2535061
vn 0.3705162 -0.5778662 -0.7271784
vn 0.5770919 0.5778666 -0.5770919
vn 0.2011836 0.9586711 -0.2011838
vn -0.06383003 0.9959174 0.06383
vn -0.3693791 0.8527121 0.3693796
vn -0.7071064 0 0.7071072
vn -0.369379 -0.8527122 0.3693794
vn -0.06383011 -0.9959174 0.06383011
vn 0.2011836 -0.9586712 -0.2011836
vn 0.5770918 -0.5778666 -0.5770921
vn 0.7271785 0.5778663 -0.3705159
vn 0.2535061 0.9586712 -0.1291678
vn -0.08043054 0.9959174 0.0409814
vn -0.4654452 0.852712 0.2371559
vn -0.8910068 0 0.45399
vn -0.4654452 -0.8527121 0.2371558
vn -0.08043064 -0.9959174 0.04098142
vn 0.253506 -0.9586712 -0.1291678
vn 0.7271786 -0.5778662 -0.3705158
vn 0.8060836 0.5778662 -0.127671
vn 0.2810136 0.9586711 -0.04450819
vn -0.08915793 0.9959174 0.01412125
vn -0.5159498 0.8527121 0.08171859
vn -0.9876882 0 0.1564356
vn -0.5159496 -0.8527122 0.08171901
vn -0.08915801 -0.9959174 0.01412127
vn 0.2810137 -0.9586711 -0.04450819
vn 0.8060834 -0.5778664 -0.1276711
vn 0.8060837 0.577866 0.1276709
vn 0.2810137 0.9586712 0.04450822
vn -0.08915793 0.9959174 -0.01412124
vn -0.51595 0.852712 -0.08171848
vn -0.9876882 0 -0.1564353
vn -0.5159498 -0.852712 -0.08171889
vn -0.08915803 -0.9959174 -0.01412124
vn 0.2810137 -0.9586712 0.04450817
vn 0.8060836 -0.5778663 0.1276708
vn 0.7271783 0.5778664 0.3705161
vn 0.2535061 0.9586712 0.1291678
vn -0.08043052 0.9959174 -0.04098143
vn -0.4654451 0.8527121 -0.237156
vn -0.8910068 0 -0.45399
vn -0.465445 -0.8527122 -0.2371558
vn -0.08043061 -0.9959174 -0.04098144
vn 0.2535061 -0.9586712 0.1291678
vn 0.7271785 -0.5778662 0.3705162
vn 0.5770924 0.5778663 0.5770918
vn 0.2011837 0.9586712 0.2011835
vn -0.06383009 0.9959174 -0.06383003
vn -0.3693793 0.852712 -0.3693793
vn -0.7071064 0 -0.7071072
vn -0.3693791 -0.8527121 -0.3693795
vn -0.06383011 -0.9959174 -0.06383011
vn 0.2011837 -0.9586712 0.2011835
vn 0.5770923 -0.5778663 0.577092
vn 0.3705158 0.5778664 0.7271784
vn 0.1291678 0.9586712 0.2535061
vn -0.04098142 0.9959174 -0.08043054
vn -0.2371562 0.8527121 -0.465445
vn -0.4539911 0 -0.8910063
vn -0.2371563 -0.8527122 -0.4654448
vn -0.04098144 -0.9959174 -0.08043061
vn 0.1291679 -0.9586711 0.2535061
vn 0.370516 -0.5778666 0.7271782
vn 0.1276711 0.5778662 0.8060836
vn 0.0445082 0.9586712 0.2810137
vn -0.01412123 0.9959174 -0.08915795
vn -0.08171839 0.8527121 -0.5159498
vn -0.1564351 0 -0.9876882
vn -0.08171874 -0.852712 -0.5159498
vn -0.01412132 -0.9959174 -0.089158
vn 0.0445082 -0.9586711 0.2810137
vn 0.1276711 -0.5778662 0.8060836
vn -0.1276712 0.5778663 0.8060835
vn -0.04450821 0.9586711 0.2810137
vn 0.01412123 0.9959174 -0.08915795
vn 0.08171856 0.852712 -0.5159499
vn 0.1564349 0 -0.9876883
vn 0.08171866 -0.8527121 -0.5159497
vn 0.01412131 -0.9959174 -0.08915805
vn -0.0445082 -0.9586711 0.2810137
vn -0.1276711 -0.5778663 0.8060836
vn -0.3705158 0.5778662 0.7271786
vn -0.1291678 0.9586712 0.2535061
vn 0.0409814 0.9959174 -0.08043054
vn 0.2371561 0.852712 -0.4654451
vn 0.45399 0 -0.8910068
vn 0.2371558 -0.8527121 -0.4654451
vn 0.04098141 -0.9959174 -0.08043063
vn -0.1291678 -0.9586712 0.2535062
vn -0.3705158 -0.5778662 0.7271786
vn -0.577092 0.5778663 0.5770922
vn -0.2011836 0.9586712 0.2011836
vn 0.06383003 0.9959174 -0.06383006
vn 0.3693794 0.852712 -0.3693794
vn 0.7071072 0 -0.7071064
vn 0.3693795 -0.8527121 -0.3693791
vn 0.06383011 -0.9959174 -0.06383011
vn -0.2011836 -0.9586712 0.2011836
vn -0.5770921 -0.5778663 0.5770922
vn -0.7271784 0.5778663 0.370516
vn -0.2535061 0.9586711 0.1291678
vn 0.08043052 0.9959174 -0.04098142
vn 0.465445 0.852712 -0.2371563
vn 0.8910065 0 -0.4539907
vn 0.4654448 -0.8527122 -0.2371561
vn 0.08043067 -0.9959174 -0.04098141
vn -0.253506 -0.9586712 0.1291679
vn -0.7271785 -0.5778661 0.3705161
vn -0.8060835 0.5778664 0.1276708
vn -0.2810138 0.9586711 0.04450822
vn 0.08915793 0.9959174 -0.01412121
vn 0.5159498 0.8527121 -0.08171831
vn 0.9876883 0 -0.1564348
vn 0.5159498 -0.8527121 -0.08171861
vn 0.08915796 -0.9959174 -0.0141213
vn -0.2810137 -0.9586711 0.04450813
vn -0.8060837 -0.5778662 0.1276708

usemtl BlackMat
f 2/2/1 11/15/1 10/14/1 1/1/1
f 3/4/2 12/17/2 11/16/2 2/3/2
f 4/5/3 13/18/3 12/17/3 3/4/3
f 5/7/4 14/20/4 13/19/4 4/6/4
f 6/8/5 15/21/5 14/20/5 5/7/5
f 7/9/6 16/22/6 15/21/6 6/8/6
f 8/11/7 17/24/7 16/23/7 7/10/7
f 9/12/8 18/25/8 17/24/8 8/11/8
f 1/1/9 10/14/9 18/26/9 9/13/9
f 11/15/10 20/28/10 19/27/10 10/14/10
f 12/17/11 21/30/11 20/29/11 11/16/11
f 13/18/12 22/31/12 21/30/12 12/17/12
f 14/20/13 23/33/13 22/32/13 13/19/13
f 15/21/14 24/34/14 23/33/14 14/20/14
f 16/22/15 25/35/15 24/34/15 15/21/15
f 17/24/16 26/37/16 25/36/16 16/23/16
f 18/25/17 27/38/17 26/37/17 17/24/17
f 10/14/18 19/27/18 27/39/18 18/26/18
f 20/41/19 29/48/19 28/47/19 19/40/19
f 21/30/20 30/50/20 29/49/20 20/29/20
f 22/31/21 31/51/21 30/50/21 21/30/21
f 23/42/22 32/52/22 31/51/22 22/31/22
f 24/44/23 33/54/23 32/53/23 23/43/23
f 25/36/24 34/56/24 33/55/24 24/45/24
f 26/37/25 35/57/25 34/56/25 25/36/25
f 27/38/26 36/58/26 35/57/26 26/37/26
f 19/40/27 28/47/27 36/59/27 27/46/27
f 29/48/28 38/63/28 37/62/28 28/47/28
f 30/50/29 39/65/29 38/64/29 29/49/29
f 31/51/30 40/66/30 39/65/30 30/50/30
f 32/53/31 41/68/31 40/67/31 31/60/31
f 33/54/32 42/69/32 41/68/32 32/53/32
f 34/61/33 43/70/33 42/69/33 33/54/33
f 35/57/34 44/72/34 43/71/34 34/56/34
f 36/58/35 45/73/35 44/72/35 35/57/35
f 28/47/36 37/62/36 45/74/36 36/59/36
f 38/63/37 47/2/37 46/1/37 37/62/37
f 39/65/38 48/76/38 47/75/38 38/64/38
f 40/66/39 49/77/39 48/76/39 39/65/39
f 41/68/40 50/7/40 49/6/40 40/67/40
f 42/69/41 51/8/41 50/7/41 41/68/41
f 43/70/42 52/9/42 51/8/42 42/69/42
f 44/72/43 53/76/43 52/77/43 43/71/43
f 45/73/44 54/75/44 53/76/44 44/72/44
f 37/62/45 46/1/45 54/13/45 45/74/45
f 47/2/46 56/15/46 55/14/46 46/1/46
f 48/76/47 57/72/47 56/73/47 47/75/47
f 49/77/48 58/71/48 57/72/48 48/76/48
f 50/7/49 59/20/49 58/19/49 49/6/49
f 51/8/50 60/21/50 59/20/50 50/7/50
f 52/9/51 61/22/51 60/21/51 51/8/51
f 53/76/52 62/65/52 61/66/52 52/77/52
f 54/75/53 63/64/53 62/65/53 53/76/53
f 46/1/54 55/14/54 63/26/54 54/13/54
f 56/15/55 65/28/55 64/27/55 55/14/55
f 57/72/56 66/57/56 65/58/56 56/73/56
f 58/71/57 67/56/57 66/57/57 57/72/57
f 59/20/58 68/33/58 67/32/58 58/19/58
f 60/21/59 69/34/59 68/33/59 59/20/59
f 61/22/60 70/35/60 69/34/60 60/21/60
f 62/65/61 71/50/61 70/51/61 61/66/61
f 63/64/62 72/49/62 71/50/62 62/65/62
f 55/14/63 64/27/63 72/39/63 63/26/63
f 65/28/64 74/79/64 73/78/64 64/27/64
f 66/57/65 75/37/65 74/38/65 65/58/65
f 67/56/66 76/36/66 75/37/66 66/57/66
f 68/55/67 77/45/67 76/36/67 67/56/67
f 69/34/68 78/81/68 77/80/68 68/33/68
f 70/51/69 79/31/69 78/42/69 69/52/69
f 71/50/70 80/30/70 79/31/70 70/51/70
f 72/49/71 81/29/71 80/30/71 71/50/71
f 64/27/72 73/78/72 81/82/72 72/39/72
f 74/48/73 83/63/73 82/62/73 73/47/73
f 75/37/74 84/24/74 83/25/74 74/38/74
f 76/36/75 85/23/75 84/24/75 75/37/75
f 77/53/76 86/68/76 85/67/76 76/60/76
f 78/54/77 87/69/77 86/68/77 77/53/77
f 79/61/78 88/70/78 87/69/78 78/54/78
f 80/30/79 89/17/79 88/18/79 79/31/79
f 81/29/80 90/16/80 89/17/80 80/30/80
f 73/47/81 82/62/81 90/74/81 81/59/81
f 83/63/82 92/2/82 91/1/82 82/62/82
f 84/24/83 93/11/83 92/12/83 83/25/83
f 85/23/84 94/83/84 93/11/84 84/24/84
f 86/68/85 95/7/85 94/6/85 85/67/85
f 87/69/86 96/8/86 95/7/86 86/68/86
f 88/70/87 97/9/87 96/8/87 87/69/87
f 89/17/88 98/4/88 97/84/88 88/18/88
f 90/16/89 99/3/89 98/4/89 89/17/89
f 82/62/90 91/1/90 99/13/90 90/74/90
f 92/2/91 101/15/91 100/14/91 91/1/91
f 93/11/92 102/86/92 101/85/92 92/12/92
f 94/83/93 103/87/93 102/86/93 93/11/93
f 95/7/94 104/20/94 103/19/94 94/6/94
f 96/8/95 105/21/95 104/20/95 95/7/95
f 97/9/96 106/22/96 105/21/96 96/8/96
f 98/4/97 107/89/97 106/88/97 97/84/97
f 99/3/98 108/90/98 107/89/98 98/4/98
f 91/1/99 100/14/99 108/26/99 99/13/99
f 101/15/100 110/28/100 109/27/100 100/14/100
f 102/86/101 111/92/101 110/91/101 101/85/101
f 103/87/102 112/93/102 111/92/102 102/86/102
f 104/20/103 113/33/103 112/32/103 103/19/103
f 105/21/104 114/34/104 113/33/104 104/20/104
f 106/22/105 115/35/105 114/34/105 105/21/105
f 107/89/106 116/95/106 115/94/106 106/88/106
f 108/90/107 117/96/107 116/95/107 107/89/107
f 100/14/108 109/27/108 117/39/108 108/26/108
f 110/41/109 119/48/109 118/47/109 109/40/109
f 111/92/110 120/100/110 119/99/110 110/91/110
f 112/93/111 121/101/111 120/100/111 111/92/111
f 113/97/112 122/102/112 121/101/112 112/93/112
f 114/44/113 123/54/113 122/53/113 113/43/113
f 115/94/114 124/104/114 123/103/114 114/98/114
f 116/95/115 125/105/115 124/104/115 115/94/115
f 117/96/116 126/106/116 125/105/116 116/95/116
f 109/40/117 118/47/117 126/59/117 117/46/117
f 119/48/118 128/63/118 127/62/118 118/47/118
f 120/100/119 129/108/119 128/107/119 119/99/119
f 121/101/120 130/109/120 129/108/120 120/100/120
f 122/53/121 131/68/121 130/67/121 121/60/121
f 123/54/122 132/69/122 131/68/122 122/53/122
f 124/61/123 133/70/123 132/69/123 123/54/123
f 125/105/124 134/111/124 133/110/124 124/104/124
f 126/106/125 135/112/125 134/111/125 125/105/125
f 118/47/126 127/62/126 135/74/126 126/59/126
f 128/63/127 137/2/127 136/1/127 127/62/127
f 129/108/128 138/114/128 137/113/128 128/107/128
f 130/109/129 139/115/129 138/114/129 129/108/129
f 131/68/130 140/7/130 139/6/130 130/67/130
f 132/69/131 141/8/131 140/7/131 131/68/131
f 133/70/132 142/9/132 141/8/132 132/69/132
f 134/111/133 143/114/133 142/115/133 133/110/133
f 135/112/134 144/113/134 143/114/134 134/111/134
f 127/62/135 136/1/135 144/13/135 135/74/135
f 137/2/136 146/15/136 145/14/136 136/1/136
f 138/114/137 147/111/137 146/112/137 137/113/137
f 139/115/138 148/110/138 147/111/138 138/114/138
f 140/7/139 149/20/139 148/19/139 139/6/139
f 141/8/140 150/21/140 149/20/140 140/7/140
f 142/9/141 151/22/141 150/21/141 141/8/141
f 143/114/142 152/108/142 151/109/142 142/115/142
f 144/113/143 153/107/143 152/108/143 143/114/143
f 136/1/144 145/14/144 153/26/144 144/13/144
f 146/15/145 155/28/145 154/27/145 145/14/145
f 147/111/146 156/105/146 155/106/146 146/112/146
f 148/110/147 157/104/147 156/105/147 147/111/147
f 149/20/148 158/33/148 157/32/148 148/19/148
f 150/21/149 159/34/149 158/33/149 149/20/149
f 151/22/150 160/35/150 159/34/150 150/21/150
f 152/108/151 161/100/151 160/101/151 151/109/151
f 153/107/152 162/99/152 161/100/152 152/108/152
f 145/14/153 154/27/153 162/39/153 153/26/153
f 155/28/154 164/79/154 163/78/154 154/27/154
f 156/105/155 165/95/155 164/96/155 155/106/155
f 157/104/156 166/94/156 165/95/156 156/105/156
f 158/103/157 167/98/157 166/94/157 157/104/157
f 159/34/158 168/81/158 167/80/158 158/33/158
f 160/101/159 169/93/159 168/97/159 159/102/159
f 161/100/160 170/92/160 169/93/160 160/101/160
f 162/99/161 171/91/161 170/92/161 161/100/161
f 154/27/162 163/78/162 171/82/162 162/39/162
f 164/48/163 173/63/163 172/62/163 163/47/163
f 165/95/164 174/89/164 173/90/164 164/96/164
f 166/94/165 175/88/165 174/89/165 165/95/165
f 167/53/166 176/68/166 175/67/166 166/60/166
f 168/54/167 177/69/167 176/68/167 167/53/167
f 169/61/168 178/70/168 177/69/168 168/54/168
f 170/92/169 179/86/169 178/87/169 169/93/169
f 171/91/170 180/85/170 179/86/170 170/92/170
f 163/47/171 172/62/171 180/74/171 171/59/171
f 173/63/172 2/2/172 1/1/172 172/62/172
f 174/89/173 3/4/173 2/3/173 173/90/173
f 175/88/174 4/5/174 3/4/174 174/89/174
f 176/68/175 5/7/175 4/6/175 175/67/175
f 177/69/176 6/8/176 5/7/176 176/68/176
f 178/70/177 7/9/177 6/8/177 177/69/177
f 179/86/178 8/11/178 7/10/178 178/87/178
f 180/85/179 9/12/179 8/11/179 179/86/179
f 172/62/180 1/1/180 9/13/180 180/74/180

