# ProBuilder 5.1.1
# https://unity3d.com/unity/features/worldbuilding/probuilder
# 07/01/2024 02:08:29

mtllib ./Pink.mtl
o Pink

g Torus
v -0.5085931 0.04905837 -0.2481805
v -0.4851975 0.08169355 -0.2481805
v -0.4259579 0.09905837 -0.2481805
v -0.3585931 0.09302764 -0.2481805
v -0.3146238 0.06642319 -0.2481805
v -0.3146238 0.03169355 -0.2481805
v -0.3585931 0.005089104 -0.2481805
v -0.4259579 -0.0009416305 -0.2481805
v -0.4851975 0.01642318 -0.2481805
v -0.3835931 0.04905837 -0.4981805
v -0.3718953 0.08169355 -0.474785
v -0.3422755 0.09905837 -0.4155453
v -0.3085931 0.09302764 -0.3481805
v -0.2866085 0.06642319 -0.3042113
v -0.2866085 0.03169355 -0.3042113
v -0.3085931 0.005089104 -0.3481805
v -0.3422755 -0.0009416305 -0.4155453
v -0.3718953 0.01642318 -0.474785
v -0.1335931 0.04905837 -0.4981805
v -0.1452908 0.08169355 -0.474785
v -0.1749107 0.09905837 -0.4155453
v -0.2085931 0.09302764 -0.3481805
v -0.2305777 0.06642319 -0.3042113
v -0.2305777 0.03169355 -0.3042113
v -0.2085931 0.005089104 -0.3481805
v -0.1749107 -0.0009416305 -0.4155453
v -0.1452909 0.01642318 -0.4747849
v -0.008593082 0.04905837 -0.2481805
v -0.03198862 0.08169355 -0.2481805
v -0.09122825 0.09905837 -0.2481805
v -0.1585931 0.09302764 -0.2481805
v -0.2025623 0.06642319 -0.2481805
v -0.2025623 0.03169355 -0.2481805
v -0.1585931 0.005089104 -0.2481805
v -0.09122826 -0.0009416305 -0.2481805
v -0.03198865 0.01642318 -0.2481805
v -0.1335931 0.04905837 0.001819491
v -0.1452909 0.08169355 -0.02157605
v -0.1749107 0.09905837 -0.08081569
v -0.2085931 0.09302764 -0.1481805
v -0.2305777 0.06642319 -0.1921498
v -0.2305777 0.03169355 -0.1921498
v -0.2085931 0.005089104 -0.1481805
v -0.1749107 -0.0009416305 -0.08081569
v -0.1452909 0.01642318 -0.02157605
v -0.3835931 0.04905837 0.001819491
v -0.3718953 0.08169355 -0.02157605
v -0.3422755 0.09905837 -0.08081569
v -0.3085931 0.09302764 -0.1481805
v -0.2866085 0.06642319 -0.1921498
v -0.2866085 0.03169355 -0.1921498
v -0.3085931 0.005089104 -0.1481805
v -0.3422755 -0.0009416305 -0.08081569
v -0.3718953 0.01642318 -0.02157605

vt -7.450581E-09 0
vt -7.450581E-09 0.06427876
vt 0.2266045 -7.450581E-09
vt 0.1673648 -7.450581E-09
vt 0.09999999 -7.450581E-09
vt 7.450581E-09 0.08660254
vt 7.450581E-09 0.03420202
vt 7.450581E-09 -0.03420202
vt 7.450581E-09 -0.08660255
vt -0.1 -7.450581E-09
vt -0.1673648 -7.450581E-09
vt -0.2266044 -7.450581E-09
vt -7.450581E-09 -0.06427877
vt -0.2165064 0
vt -0.1962452 0.06427876
vt 0.1133022 -0.1962452
vt 0.0836824 -0.1449422
vt 0.04999999 -0.08660255
vt 0.08660255 0.08660254
vt 0.04852406 0.03420202
vt 0.04852406 -0.03420202
vt 0.08660257 -0.08660255
vt -0.05 -0.08660257
vt -0.0836824 -0.1449422
vt -0.1133022 -0.1962452
vt -0.1962452 -0.06427877
vt 0.125 0
vt 0.1133022 0.06427876
vt -0.04999999 0.08660254
vt -0.02801536 0.03420202
vt -0.02801536 -0.03420202
vt 0.1133022 -0.06427877
vt -0.125 0
vt -0.1133022 0.06427876
vt -0.05 -0.08660254
vt 0.05 0.08660254
vt 0.02801537 0.03420202
vt 0.02801537 -0.03420202
vt 0.05000001 -0.08660255
vt -0.1133022 -0.06427877
vt 0.2165064 0
vt 0.1962452 0.06427876
vt -0.08660254 0.08660254
vt -0.04852404 0.03420202
vt -0.04852404 -0.03420202
vt -0.08660255 -0.08660255
vt 0.1962452 -0.06427877
vt -0.09999999 1.003398E-08
vt 0.1 1.003398E-08
vt -0.1133022 0.1962452
vt -0.0836824 0.1449422
vt 0.04999999 0.08660255
vt 0.0836824 0.1449422
vt 0.1133022 0.1962452
vt 0.125 0
vt -0.125 0

vn -0.7529407 0.5397688 -0.3764704
vn -0.2785509 0.9502693 -0.1392754
vn 0.08907834 0.9950283 0.04453917
vn 0.5011649 0.8282767 0.2505824
vn 0.8944272 0 0.4472136
vn 0.5011647 -0.8282768 0.2505824
vn 0.08907843 -0.9950283 0.04453921
vn -0.278551 -0.9502693 -0.1392755
vn -0.7529406 -0.5397691 -0.3764702
vn 0 0.582634 -0.8127347
vn 0 0.9596221 -0.2812925
vn 0 0.9960167 0.08916686
vn -1.542811E-07 0.8555737 0.5176812
vn 0 0 1
vn 0 -0.8555737 0.5176812
vn 0 -0.9960167 0.08916692
vn 0 -0.9596221 -0.2812924
vn 1.068884E-07 -0.5826337 -0.8127349
vn 0.7529406 0.5397691 -0.3764702
vn 0.2785509 0.9502693 -0.1392754
vn -0.08907834 0.9950283 0.04453917
vn -0.5011649 0.8282766 0.2505824
vn -0.8944272 0 0.4472135
vn -0.5011647 -0.8282768 0.2505823
vn -0.08907844 -0.9950283 0.0445392
vn 0.2785509 -0.9502693 -0.1392754
vn 0.7529405 -0.5397694 -0.3764702
vn 0.7529407 0.5397688 0.3764704
vn 0.2785509 0.9502693 0.1392755
vn -0.08907835 0.9950283 -0.04453919
vn -0.5011649 0.8282766 -0.2505825
vn -0.894427 0 -0.447214
vn -0.5011648 -0.8282766 -0.2505826
vn -0.08907843 -0.9950283 -0.04453925
vn 0.2785509 -0.9502693 0.1392755
vn 0.7529405 -0.5397691 0.3764702
vn 0 0.582634 0.8127347
vn 0 0.9596221 0.2812924
vn 0 0.9960167 -0.08916684
vn 0 0.8555736 -0.5176812
vn 0 0 -1
vn 0 -0.8555735 -0.5176812
vn 0 -0.9960167 -0.08916689
vn 0 -0.9596221 0.2812923
vn 0 -0.5826337 0.8127348
vn -0.7529407 0.5397688 0.3764704
vn -0.2785508 0.9502693 0.1392754
vn 0.08907836 0.9950283 -0.04453919
vn 0.5011649 0.8282766 -0.2505825
vn 0.8944272 0 -0.4472135
vn 0.5011649 -0.8282768 -0.2505823
vn 0.08907846 -0.9950283 -0.04453923
vn -0.2785507 -0.9502693 0.1392754
vn -0.7529409 -0.5397686 0.3764704

usemtl PinkMat
f 2/2/1 11/15/1 10/14/1 1/1/1
f 3/4/2 12/17/2 11/16/2 2/3/2
f 4/5/3 13/18/3 12/17/3 3/4/3
f 5/7/4 14/20/4 13/19/4 4/6/4
f 6/8/5 15/21/5 14/20/5 5/7/5
f 7/9/6 16/22/6 15/21/6 6/8/6
f 8/11/7 17/24/7 16/23/7 7/10/7
f 9/12/8 18/25/8 17/24/8 8/11/8
f 1/1/9 10/14/9 18/26/9 9/13/9
f 11/28/10 20/34/10 19/33/10 10/27/10
f 12/17/11 21/24/11 20/25/11 11/16/11
f 13/18/12 22/35/12 21/24/12 12/17/12
f 14/30/13 23/37/13 22/36/13 13/29/13
f 15/31/14 24/38/14 23/37/14 14/30/14
f 16/23/15 25/39/15 24/38/15 15/31/15
f 17/24/16 26/17/16 25/39/16 16/23/16
f 18/25/17 27/16/17 26/17/17 17/24/17
f 10/27/18 19/33/18 27/40/18 18/32/18
f 20/42/19 29/2/19 28/1/19 19/41/19
f 21/24/20 30/11/20 29/12/20 20/25/20
f 22/35/21 31/48/21 30/11/21 21/24/21
f 23/44/22 32/7/22 31/6/22 22/43/22
f 24/45/23 33/8/23 32/7/23 23/44/23
f 25/46/24 34/9/24 33/8/24 24/45/24
f 26/17/25 35/4/25 34/49/25 25/39/25
f 27/16/26 36/3/26 35/4/26 26/17/26
f 19/41/27 28/1/27 36/13/27 27/47/27
f 29/2/28 38/15/28 37/14/28 28/1/28
f 30/11/29 39/51/29 38/50/29 29/12/29
f 31/48/30 40/29/30 39/51/30 30/11/30
f 32/7/31 41/20/31 40/19/31 31/6/31
f 33/8/32 42/21/32 41/20/32 32/7/32
f 34/9/33 43/22/33 42/21/33 33/8/33
f 35/4/34 44/53/34 43/52/34 34/49/34
f 36/3/35 45/54/35 44/53/35 35/4/35
f 28/1/36 37/14/36 45/26/36 36/13/36
f 38/28/37 47/34/37 46/56/37 37/55/37
f 39/51/38 48/53/38 47/54/38 38/50/38
f 40/29/39 49/52/39 48/53/39 39/51/39
f 41/30/40 50/37/40 49/52/40 40/29/40
f 42/31/41 51/38/41 50/37/41 41/30/41
f 43/23/42 52/18/42 51/38/42 42/31/42
f 44/53/43 53/51/43 52/29/43 43/52/43
f 45/54/44 54/50/44 53/51/44 44/53/44
f 37/55/45 46/56/45 54/40/45 45/32/45
f 47/42/46 2/2/46 1/1/46 46/41/46
f 48/53/47 3/4/47 2/3/47 47/54/47
f 49/52/48 4/5/48 3/4/48 48/53/48
f 50/44/49 5/7/49 4/6/49 49/43/49
f 51/45/50 6/8/50 5/7/50 50/44/50
f 52/46/51 7/9/51 6/8/51 51/45/51
f 53/51/52 8/11/52 7/10/52 52/29/52
f 54/50/53 9/12/53 8/11/53 53/51/53
f 46/41/54 1/1/54 9/13/54 54/47/54

