# ProBuilder 5.1.1
# https://unity3d.com/unity/features/worldbuilding/probuilder
# 07/01/2024 02:08:52

mtllib ./Purple.mtl
o Purple

g Purple
v -1.020998 0.1441062 -0.5861664
v -0.520998 0.1441062 -0.08616638
v -0.520998 0.7441062 -0.5861664
v -0.520998 0.1441062 -0.5861664
v -0.020998 0.1441062 -0.5861664
v -0.520998 0.1441062 -1.086166

vt 0 0
vt 1.414214 0
vt 0.7071068 0.9273619
vt -1.020998 -0.5861664
vt -0.520998 -0.08616638
vt -0.520998 -0.5861664
vt -0.020998 -0.5861664
vt -0.520998 -1.086166

vn -0.6092077 0.5076731 0.6092077
vn 0 -1 0
vn 0.6092077 0.5076731 0.6092077
vn 0.6092077 0.5076731 -0.6092077
vn -0.6092077 0.5076731 -0.6092077

usemtl PurpleMat
f 1/1/1 2/2/1 3/3/1
f 4/6/2 2/5/2 1/4/2
f 2/1/3 5/2/3 3/3/3
f 4/6/2 5/7/2 2/5/2
f 5/1/4 6/2/4 3/3/4
f 4/6/2 6/8/2 5/7/2
f 6/1/5 1/2/5 3/3/5
f 4/6/2 1/4/2 6/8/2

